<svg class="hero-mark" width="120" height="120" viewBox="0 0 64 64" xmlns="http://www.w3.org/2000/svg" role="img" aria-label="Partwright — twisted hexagonal vase printing itself layer by layer">
      <defs>
        <linearGradient id="topf" x1="20" y1="12" x2="45" y2="42" gradientUnits="userSpaceOnUse"><stop offset="0" stop-color="#7df0dd"/><stop offset="1" stop-color="#2dd4bf"/></linearGradient>
        <linearGradient id="near-r" x1="30" y1="12" x2="48" y2="56" gradientUnits="userSpaceOnUse"><stop offset="0" stop-color="#1ac9b6"/><stop offset="1" stop-color="#0d9488"/></linearGradient>
        <linearGradient id="near-l" x1="14" y1="12" x2="32" y2="56" gradientUnits="userSpaceOnUse"><stop offset="0" stop-color="#11a597"/><stop offset="1" stop-color="#0b7c71"/></linearGradient>
        <linearGradient id="far-r" x1="30" y1="12" x2="48" y2="56" gradientUnits="userSpaceOnUse"><stop offset="0" stop-color="#0c7066"/><stop offset="1" stop-color="#084b44"/></linearGradient>
        <linearGradient id="far-l" x1="14" y1="12" x2="32" y2="56" gradientUnits="userSpaceOnUse"><stop offset="0" stop-color="#0a5b52"/><stop offset="1" stop-color="#073d37"/></linearGradient>
        <radialGradient id="h-shadow" cx="0.5" cy="0.5" r="0.5"><stop offset="0" stop-color="#000" stop-opacity="0.45"/><stop offset="1" stop-color="#000" stop-opacity="0"/></radialGradient>
        <linearGradient id="h-plate" x1="0" y1="0" x2="0" y2="1"><stop offset="0" stop-color="#15202e"/><stop offset="1" stop-color="#0c1620"/></linearGradient>
      </defs>
      <ellipse cx="32" cy="54.4" rx="17.5" ry="2.6" fill="url(#h-shadow)"/>
      <g class="plate">
        <ellipse cx="32" cy="51.4" rx="13.4" ry="3.0" fill="url(#h-plate)"/>
        <ellipse cx="32" cy="51.0" rx="13.4" ry="3.0" fill="none" stroke="#14b8a6" stroke-width="0.5" stroke-opacity="0.4"/>
      </g>
      <g class="ly ly0">
      <path d="M22.40 50.60 L27.20 46.78 L28.25 43.38 L21.66 47.13 Z" fill="url(#far-l)"/>
      <path d="M27.20 46.78 L36.80 46.78 L38.59 44.14 L28.25 43.38 Z" fill="url(#far-r)"/>
      <path d="M36.80 46.78 L41.60 50.60 L42.34 48.63 L38.59 44.14 Z" fill="url(#far-r)"/>
      <path d="M42.34 48.63 L35.75 52.38 L25.41 51.62 L21.66 47.13 L28.25 43.38 L38.59 44.14 Z" fill="url(#topf)"/>
      <path d="M41.60 50.60 L36.80 54.42 L35.75 52.38 L42.34 48.63 Z" fill="url(#near-r)"/>
      <path d="M36.80 54.42 L27.20 54.42 L25.41 51.62 L35.75 52.38 Z" fill="url(#near-l)"/>
      <path d="M27.20 54.42 L22.40 50.60 L21.66 47.13 L25.41 51.62 Z" fill="url(#near-l)"/>
      <path d="M41.60 50.60 L42.34 48.63" fill="none" stroke="#0a5650" stroke-width="0.4" stroke-opacity="0.55"/>
      <path d="M36.80 54.42 L35.75 52.38" fill="none" stroke="#0a5650" stroke-width="0.4" stroke-opacity="0.55"/>
      <path d="M27.20 54.42 L25.41 51.62" fill="none" stroke="#0a5650" stroke-width="0.4" stroke-opacity="0.55"/>
      <path d="M42.34 48.63 L35.75 52.38" fill="none" stroke="#8df6e3" stroke-width="0.5" stroke-opacity="0.92" stroke-linecap="round"/>
      <path d="M35.75 52.38 L25.41 51.62" fill="none" stroke="#8df6e3" stroke-width="0.5" stroke-opacity="0.92" stroke-linecap="round"/>
      <path d="M25.41 51.62 L21.66 47.13" fill="none" stroke="#8df6e3" stroke-width="0.5" stroke-opacity="0.92" stroke-linecap="round"/>
      <path class="flash" d="M42.34 48.63 L35.75 52.38 L25.41 51.62 L21.66 47.13 L28.25 43.38 L38.59 44.14 Z" fill="none" stroke="#d6fff5" stroke-width="1.3" stroke-opacity="0"/>
      </g>
      <g class="ly ly1">
      <path d="M21.66 47.13 L28.25 43.38 L29.64 40.04 L21.19 43.54 Z" fill="url(#far-l)"/>
      <path d="M28.25 43.38 L38.59 44.14 L40.45 41.66 L29.64 40.04 Z" fill="url(#far-r)"/>
      <path d="M38.59 44.14 L42.34 48.63 L42.81 46.78 L40.45 41.66 Z" fill="url(#far-r)"/>
      <path d="M42.81 46.78 L34.36 50.28 L23.55 48.66 L21.19 43.54 L29.64 40.04 L40.45 41.66 Z" fill="url(#topf)"/>
      <path d="M42.34 48.63 L35.75 52.38 L34.36 50.28 L42.81 46.78 Z" fill="url(#near-r)"/>
      <path d="M35.75 52.38 L25.41 51.62 L23.55 48.66 L34.36 50.28 Z" fill="url(#near-l)"/>
      <path d="M25.41 51.62 L21.66 47.13 L21.19 43.54 L23.55 48.66 Z" fill="url(#near-l)"/>
      <path d="M42.34 48.63 L42.81 46.78" fill="none" stroke="#0a5650" stroke-width="0.4" stroke-opacity="0.55"/>
      <path d="M35.75 52.38 L34.36 50.28" fill="none" stroke="#0a5650" stroke-width="0.4" stroke-opacity="0.55"/>
      <path d="M25.41 51.62 L23.55 48.66" fill="none" stroke="#0a5650" stroke-width="0.4" stroke-opacity="0.55"/>
      <path d="M42.81 46.78 L34.36 50.28" fill="none" stroke="#8df6e3" stroke-width="0.5" stroke-opacity="0.92" stroke-linecap="round"/>
      <path d="M34.36 50.28 L23.55 48.66" fill="none" stroke="#8df6e3" stroke-width="0.5" stroke-opacity="0.92" stroke-linecap="round"/>
      <path d="M23.55 48.66 L21.19 43.54" fill="none" stroke="#8df6e3" stroke-width="0.5" stroke-opacity="0.92" stroke-linecap="round"/>
      <path class="flash" d="M42.81 46.78 L34.36 50.28 L23.55 48.66 L21.19 43.54 L29.64 40.04 L40.45 41.66 Z" fill="none" stroke="#d6fff5" stroke-width="1.3" stroke-opacity="0"/>
      </g>
      <g class="ly ly2">
      <path d="M21.19 43.54 L29.64 40.04 L31.36 36.86 L21.19 39.91 Z" fill="url(#far-l)"/>
      <path d="M29.64 40.04 L40.45 41.66 L42.18 39.40 L31.36 36.86 Z" fill="url(#far-r)"/>
      <path d="M40.45 41.66 L42.81 46.78 L42.81 44.97 L42.18 39.40 Z" fill="url(#far-r)"/>
      <path d="M42.81 44.97 L32.64 48.02 L21.82 45.48 L21.19 39.91 L31.36 36.86 L42.18 39.40 Z" fill="url(#topf)"/>
      <path d="M42.81 46.78 L34.36 50.28 L32.64 48.02 L42.81 44.97 Z" fill="url(#near-r)"/>
      <path d="M34.36 50.28 L23.55 48.66 L21.82 45.48 L32.64 48.02 Z" fill="url(#near-l)"/>
      <path d="M23.55 48.66 L21.19 43.54 L21.19 39.91 L21.82 45.48 Z" fill="url(#near-l)"/>
      <path d="M42.81 46.78 L42.81 44.97" fill="none" stroke="#0a5650" stroke-width="0.4" stroke-opacity="0.55"/>
      <path d="M34.36 50.28 L32.64 48.02" fill="none" stroke="#0a5650" stroke-width="0.4" stroke-opacity="0.55"/>
      <path d="M23.55 48.66 L21.82 45.48" fill="none" stroke="#0a5650" stroke-width="0.4" stroke-opacity="0.55"/>
      <path d="M42.81 44.97 L32.64 48.02" fill="none" stroke="#8df6e3" stroke-width="0.5" stroke-opacity="0.92" stroke-linecap="round"/>
      <path d="M32.64 48.02 L21.82 45.48" fill="none" stroke="#8df6e3" stroke-width="0.5" stroke-opacity="0.92" stroke-linecap="round"/>
      <path d="M21.82 45.48 L21.19 39.91" fill="none" stroke="#8df6e3" stroke-width="0.5" stroke-opacity="0.92" stroke-linecap="round"/>
      <path class="flash" d="M42.81 44.97 L32.64 48.02 L21.82 45.48 L21.19 39.91 L31.36 36.86 L42.18 39.40 Z" fill="none" stroke="#d6fff5" stroke-width="1.3" stroke-opacity="0"/>
      </g>
      <g class="ly ly3">
      <path d="M21.82 45.48 L21.19 39.91 L21.73 36.29 L20.40 42.09 Z" fill="url(#far-l)"/>
      <path d="M21.19 39.91 L31.36 36.86 L33.33 33.91 L21.73 36.29 Z" fill="url(#far-l)"/>
      <path d="M31.36 36.86 L42.18 39.40 L43.60 37.35 L33.33 33.91 Z" fill="url(#far-r)"/>
      <path d="M42.27 43.15 L30.67 45.53 L20.40 42.09 L21.73 36.29 L33.33 33.91 L43.60 37.35 Z" fill="url(#topf)"/>
      <path d="M42.81 44.97 L32.64 48.02 L30.67 45.53 L42.27 43.15 Z" fill="url(#near-r)"/>
      <path d="M32.64 48.02 L21.82 45.48 L20.40 42.09 L30.67 45.53 Z" fill="url(#near-l)"/>
      <path d="M42.18 39.40 L42.81 44.97 L42.27 43.15 L43.60 37.35 Z" fill="url(#near-r)"/>
      <path d="M42.81 44.97 L42.27 43.15" fill="none" stroke="#0a5650" stroke-width="0.4" stroke-opacity="0.55"/>
      <path d="M32.64 48.02 L30.67 45.53" fill="none" stroke="#0a5650" stroke-width="0.4" stroke-opacity="0.55"/>
      <path d="M21.82 45.48 L20.40 42.09" fill="none" stroke="#0a5650" stroke-width="0.4" stroke-opacity="0.55"/>
      <path d="M42.27 43.15 L30.67 45.53" fill="none" stroke="#8df6e3" stroke-width="0.5" stroke-opacity="0.92" stroke-linecap="round"/>
      <path d="M30.67 45.53 L20.40 42.09" fill="none" stroke="#8df6e3" stroke-width="0.5" stroke-opacity="0.92" stroke-linecap="round"/>
      <path d="M43.60 37.35 L42.27 43.15" fill="none" stroke="#8df6e3" stroke-width="0.5" stroke-opacity="0.92" stroke-linecap="round"/>
      <path class="flash" d="M42.27 43.15 L30.67 45.53 L20.40 42.09 L21.73 36.29 L33.33 33.91 L43.60 37.35 Z" fill="none" stroke="#d6fff5" stroke-width="1.3" stroke-opacity="0"/>
      </g>
      <g class="ly ly4">
      <path d="M20.40 42.09 L21.73 36.29 L22.81 32.77 L19.44 38.55 Z" fill="url(#far-l)"/>
      <path d="M21.73 36.29 L33.33 33.91 L35.36 31.22 L22.81 32.77 Z" fill="url(#far-l)"/>
      <path d="M33.33 33.91 L43.60 37.35 L44.56 35.45 L35.36 31.22 Z" fill="url(#far-r)"/>
      <path d="M41.19 41.23 L28.64 42.78 L19.44 38.55 L22.81 32.77 L35.36 31.22 L44.56 35.45 Z" fill="url(#topf)"/>
      <path d="M42.27 43.15 L30.67 45.53 L28.64 42.78 L41.19 41.23 Z" fill="url(#near-r)"/>
      <path d="M30.67 45.53 L20.40 42.09 L19.44 38.55 L28.64 42.78 Z" fill="url(#near-l)"/>
      <path d="M43.60 37.35 L42.27 43.15 L41.19 41.23 L44.56 35.45 Z" fill="url(#near-r)"/>
      <path d="M42.27 43.15 L41.19 41.23" fill="none" stroke="#0a5650" stroke-width="0.4" stroke-opacity="0.55"/>
      <path d="M30.67 45.53 L28.64 42.78" fill="none" stroke="#0a5650" stroke-width="0.4" stroke-opacity="0.55"/>
      <path d="M20.40 42.09 L19.44 38.55" fill="none" stroke="#0a5650" stroke-width="0.4" stroke-opacity="0.55"/>
      <path d="M41.19 41.23 L28.64 42.78" fill="none" stroke="#8df6e3" stroke-width="0.5" stroke-opacity="0.92" stroke-linecap="round"/>
      <path d="M28.64 42.78 L19.44 38.55" fill="none" stroke="#8df6e3" stroke-width="0.5" stroke-opacity="0.92" stroke-linecap="round"/>
      <path d="M44.56 35.45 L41.19 41.23" fill="none" stroke="#8df6e3" stroke-width="0.5" stroke-opacity="0.92" stroke-linecap="round"/>
      <path class="flash" d="M41.19 41.23 L28.64 42.78 L19.44 38.55 L22.81 32.77 L35.36 31.22 L44.56 35.45 Z" fill="none" stroke="#d6fff5" stroke-width="1.3" stroke-opacity="0"/>
      </g>
      <g class="ly ly5">
      <path d="M19.44 38.55 L22.81 32.77 L24.34 29.43 L19.04 34.91 Z" fill="url(#far-l)"/>
      <path d="M22.81 32.77 L35.36 31.22 L37.30 28.80 L24.34 29.43 Z" fill="url(#far-l)"/>
      <path d="M35.36 31.22 L44.56 35.45 L44.96 33.65 L37.30 28.80 Z" fill="url(#far-r)"/>
      <path d="M39.66 39.13 L26.70 39.76 L19.04 34.91 L24.34 29.43 L37.30 28.80 L44.96 33.65 Z" fill="url(#topf)"/>
      <path d="M41.19 41.23 L28.64 42.78 L26.70 39.76 L39.66 39.13 Z" fill="url(#near-r)"/>
      <path d="M28.64 42.78 L19.44 38.55 L19.04 34.91 L26.70 39.76 Z" fill="url(#near-l)"/>
      <path d="M44.56 35.45 L41.19 41.23 L39.66 39.13 L44.96 33.65 Z" fill="url(#near-r)"/>
      <path d="M41.19 41.23 L39.66 39.13" fill="none" stroke="#0a5650" stroke-width="0.4" stroke-opacity="0.55"/>
      <path d="M28.64 42.78 L26.70 39.76" fill="none" stroke="#0a5650" stroke-width="0.4" stroke-opacity="0.55"/>
      <path d="M19.44 38.55 L19.04 34.91" fill="none" stroke="#0a5650" stroke-width="0.4" stroke-opacity="0.55"/>
      <path d="M39.66 39.13 L26.70 39.76" fill="none" stroke="#8df6e3" stroke-width="0.5" stroke-opacity="0.92" stroke-linecap="round"/>
      <path d="M26.70 39.76 L19.04 34.91" fill="none" stroke="#8df6e3" stroke-width="0.5" stroke-opacity="0.92" stroke-linecap="round"/>
      <path d="M44.96 33.65 L39.66 39.13" fill="none" stroke="#8df6e3" stroke-width="0.5" stroke-opacity="0.92" stroke-linecap="round"/>
      <path class="flash" d="M39.66 39.13 L26.70 39.76 L19.04 34.91 L24.34 29.43 L37.30 28.80 L44.96 33.65 Z" fill="none" stroke="#d6fff5" stroke-width="1.3" stroke-opacity="0"/>
      </g>
      <g class="ly ly6">
      <path d="M19.04 34.91 L24.34 29.43 L26.19 26.31 L19.21 31.25 Z" fill="url(#far-l)"/>
      <path d="M24.34 29.43 L37.30 28.80 L38.97 26.62 L26.19 26.31 Z" fill="url(#far-l)"/>
      <path d="M37.30 28.80 L44.96 33.65 L44.79 31.87 L38.97 26.62 Z" fill="url(#far-r)"/>
      <path d="M37.81 36.81 L25.03 36.50 L19.21 31.25 L26.19 26.31 L38.97 26.62 L44.79 31.87 Z" fill="url(#topf)"/>
      <path d="M39.66 39.13 L26.70 39.76 L25.03 36.50 L37.81 36.81 Z" fill="url(#near-r)"/>
      <path d="M26.70 39.76 L19.04 34.91 L19.21 31.25 L25.03 36.50 Z" fill="url(#near-l)"/>
      <path d="M44.96 33.65 L39.66 39.13 L37.81 36.81 L44.79 31.87 Z" fill="url(#near-r)"/>
      <path d="M39.66 39.13 L37.81 36.81" fill="none" stroke="#0a5650" stroke-width="0.4" stroke-opacity="0.55"/>
      <path d="M26.70 39.76 L25.03 36.50" fill="none" stroke="#0a5650" stroke-width="0.4" stroke-opacity="0.55"/>
      <path d="M19.04 34.91 L19.21 31.25" fill="none" stroke="#0a5650" stroke-width="0.4" stroke-opacity="0.55"/>
      <path d="M37.81 36.81 L25.03 36.50" fill="none" stroke="#8df6e3" stroke-width="0.5" stroke-opacity="0.92" stroke-linecap="round"/>
      <path d="M25.03 36.50 L19.21 31.25" fill="none" stroke="#8df6e3" stroke-width="0.5" stroke-opacity="0.92" stroke-linecap="round"/>
      <path d="M44.79 31.87 L37.81 36.81" fill="none" stroke="#8df6e3" stroke-width="0.5" stroke-opacity="0.92" stroke-linecap="round"/>
      <path class="flash" d="M37.81 36.81 L25.03 36.50 L19.21 31.25 L26.19 26.31 L38.97 26.62 L44.79 31.87 Z" fill="none" stroke="#d6fff5" stroke-width="1.3" stroke-opacity="0"/>
      </g>
      <g class="ly ly7">
      <path d="M19.21 31.25 L26.19 26.31 L28.19 23.44 L19.93 27.66 Z" fill="url(#far-l)"/>
      <path d="M26.19 26.31 L38.97 26.62 L40.26 24.62 L28.19 23.44 Z" fill="url(#far-r)"/>
      <path d="M38.97 26.62 L44.79 31.87 L44.07 30.02 L40.26 24.62 Z" fill="url(#far-r)"/>
      <path d="M35.81 34.24 L23.74 33.06 L19.93 27.66 L28.19 23.44 L40.26 24.62 L44.07 30.02 Z" fill="url(#topf)"/>
      <path d="M37.81 36.81 L25.03 36.50 L23.74 33.06 L35.81 34.24 Z" fill="url(#near-l)"/>
      <path d="M25.03 36.50 L19.21 31.25 L19.93 27.66 L23.74 33.06 Z" fill="url(#near-l)"/>
      <path d="M44.79 31.87 L37.81 36.81 L35.81 34.24 L44.07 30.02 Z" fill="url(#near-r)"/>
      <path d="M37.81 36.81 L35.81 34.24" fill="none" stroke="#0a5650" stroke-width="0.4" stroke-opacity="0.55"/>
      <path d="M25.03 36.50 L23.74 33.06" fill="none" stroke="#0a5650" stroke-width="0.4" stroke-opacity="0.55"/>
      <path d="M44.79 31.87 L44.07 30.02" fill="none" stroke="#0a5650" stroke-width="0.4" stroke-opacity="0.55"/>
      <path d="M35.81 34.24 L23.74 33.06" fill="none" stroke="#8df6e3" stroke-width="0.5" stroke-opacity="0.92" stroke-linecap="round"/>
      <path d="M23.74 33.06 L19.93 27.66" fill="none" stroke="#8df6e3" stroke-width="0.5" stroke-opacity="0.92" stroke-linecap="round"/>
      <path d="M44.07 30.02 L35.81 34.24" fill="none" stroke="#8df6e3" stroke-width="0.5" stroke-opacity="0.92" stroke-linecap="round"/>
      <path class="flash" d="M35.81 34.24 L23.74 33.06 L19.93 27.66 L28.19 23.44 L40.26 24.62 L44.07 30.02 Z" fill="none" stroke="#d6fff5" stroke-width="1.3" stroke-opacity="0"/>
      </g>
      <g class="ly ly8">
      <path d="M19.93 27.66 L28.19 23.44 L30.17 20.81 L21.09 24.19 Z" fill="url(#far-l)"/>
      <path d="M28.19 23.44 L40.26 24.62 L41.08 22.74 L30.17 20.81 Z" fill="url(#far-r)"/>
      <path d="M40.26 24.62 L44.07 30.02 L42.91 28.05 L41.08 22.74 Z" fill="url(#far-r)"/>
      <path d="M33.83 31.43 L22.92 29.50 L21.09 24.19 L30.17 20.81 L41.08 22.74 L42.91 28.05 Z" fill="url(#topf)"/>
      <path d="M35.81 34.24 L23.74 33.06 L22.92 29.50 L33.83 31.43 Z" fill="url(#near-l)"/>
      <path d="M23.74 33.06 L19.93 27.66 L21.09 24.19 L22.92 29.50 Z" fill="url(#near-l)"/>
      <path d="M44.07 30.02 L35.81 34.24 L33.83 31.43 L42.91 28.05 Z" fill="url(#near-r)"/>
      <path d="M35.81 34.24 L33.83 31.43" fill="none" stroke="#0a5650" stroke-width="0.4" stroke-opacity="0.55"/>
      <path d="M23.74 33.06 L22.92 29.50" fill="none" stroke="#0a5650" stroke-width="0.4" stroke-opacity="0.55"/>
      <path d="M44.07 30.02 L42.91 28.05" fill="none" stroke="#0a5650" stroke-width="0.4" stroke-opacity="0.55"/>
      <path d="M33.83 31.43 L22.92 29.50" fill="none" stroke="#8df6e3" stroke-width="0.5" stroke-opacity="0.92" stroke-linecap="round"/>
      <path d="M22.92 29.50 L21.09 24.19" fill="none" stroke="#8df6e3" stroke-width="0.5" stroke-opacity="0.92" stroke-linecap="round"/>
      <path d="M42.91 28.05 L33.83 31.43" fill="none" stroke="#8df6e3" stroke-width="0.5" stroke-opacity="0.92" stroke-linecap="round"/>
      <path class="flash" d="M33.83 31.43 L22.92 29.50 L21.09 24.19 L30.17 20.81 L41.08 22.74 L42.91 28.05 Z" fill="none" stroke="#d6fff5" stroke-width="1.3" stroke-opacity="0"/>
      </g>
      <g class="ly ly9">
      <path d="M21.09 24.19 L30.17 20.81 L32.00 18.39 L22.56 20.89 Z" fill="url(#far-l)"/>
      <path d="M30.17 20.81 L41.08 22.74 L41.44 20.89 L32.00 18.39 Z" fill="url(#far-r)"/>
      <path d="M41.08 22.74 L42.91 28.05 L41.44 25.91 L41.44 20.89 Z" fill="url(#far-r)"/>
      <path d="M32.00 28.41 L22.56 25.91 L22.56 20.89 L32.00 18.39 L41.44 20.89 L41.44 25.91 Z" fill="url(#topf)"/>
      <path d="M33.83 31.43 L22.92 29.50 L22.56 25.91 L32.00 28.41 Z" fill="url(#near-l)"/>
      <path d="M22.92 29.50 L21.09 24.19 L22.56 20.89 L22.56 25.91 Z" fill="url(#near-l)"/>
      <path d="M42.91 28.05 L33.83 31.43 L32.00 28.41 L41.44 25.91 Z" fill="url(#near-r)"/>
      <path d="M33.83 31.43 L32.00 28.41" fill="none" stroke="#0a5650" stroke-width="0.4" stroke-opacity="0.55"/>
      <path d="M22.92 29.50 L22.56 25.91" fill="none" stroke="#0a5650" stroke-width="0.4" stroke-opacity="0.55"/>
      <path d="M42.91 28.05 L41.44 25.91" fill="none" stroke="#0a5650" stroke-width="0.4" stroke-opacity="0.55"/>
      <path d="M32.00 28.41 L22.56 25.91" fill="none" stroke="#8df6e3" stroke-width="0.5" stroke-opacity="0.92" stroke-linecap="round"/>
      <path d="M41.44 25.91 L32.00 28.41" fill="none" stroke="#8df6e3" stroke-width="0.5" stroke-opacity="0.92" stroke-linecap="round"/>
      <path class="flash" d="M32.00 28.41 L22.56 25.91 L22.56 20.89 L32.00 18.39 L41.44 20.89 L41.44 25.91 Z" fill="none" stroke="#d6fff5" stroke-width="1.3" stroke-opacity="0"/>
      </g>
      <g class="ly ly10">
      <path d="M22.56 25.91 L22.56 20.89 L24.18 17.77 L22.61 22.34 Z" fill="url(#far-l)"/>
      <path d="M22.56 20.89 L32.00 18.39 L33.57 16.11 L24.18 17.77 Z" fill="url(#far-l)"/>
      <path d="M32.00 18.39 L41.44 20.89 L41.39 19.02 L33.57 16.11 Z" fill="url(#far-r)"/>
      <path d="M30.43 25.25 L22.61 22.34 L24.18 17.77 L33.57 16.11 L41.39 19.02 L39.82 23.59 Z" fill="url(#topf)"/>
      <path d="M32.00 28.41 L22.56 25.91 L22.61 22.34 L30.43 25.25 Z" fill="url(#near-l)"/>
      <path d="M41.44 20.89 L41.44 25.91 L39.82 23.59 L41.39 19.02 Z" fill="url(#near-r)"/>
      <path d="M41.44 25.91 L32.00 28.41 L30.43 25.25 L39.82 23.59 Z" fill="url(#near-r)"/>
      <path d="M32.00 28.41 L30.43 25.25" fill="none" stroke="#0a5650" stroke-width="0.4" stroke-opacity="0.55"/>
      <path d="M22.56 25.91 L22.61 22.34" fill="none" stroke="#0a5650" stroke-width="0.4" stroke-opacity="0.55"/>
      <path d="M41.44 25.91 L39.82 23.59" fill="none" stroke="#0a5650" stroke-width="0.4" stroke-opacity="0.55"/>
      <path d="M30.43 25.25 L22.61 22.34" fill="none" stroke="#8df6e3" stroke-width="0.5" stroke-opacity="0.92" stroke-linecap="round"/>
      <path d="M41.39 19.02 L39.82 23.59" fill="none" stroke="#8df6e3" stroke-width="0.5" stroke-opacity="0.92" stroke-linecap="round"/>
      <path d="M39.82 23.59 L30.43 25.25" fill="none" stroke="#8df6e3" stroke-width="0.5" stroke-opacity="0.92" stroke-linecap="round"/>
      <path class="flash" d="M30.43 25.25 L22.61 22.34 L24.18 17.77 L33.57 16.11 L41.39 19.02 L39.82 23.59 Z" fill="none" stroke="#d6fff5" stroke-width="1.3" stroke-opacity="0"/>
      </g>
      <g class="ly ly11">
      <path d="M22.61 22.34 L24.18 17.77 L25.82 14.80 L22.96 18.84 Z" fill="url(#far-l)"/>
      <path d="M24.18 17.77 L33.57 16.11 L34.85 13.92 L25.82 14.80 Z" fill="url(#far-l)"/>
      <path d="M33.57 16.11 L41.39 19.02 L41.04 17.08 L34.85 13.92 Z" fill="url(#far-r)"/>
      <path d="M29.15 22.00 L22.96 18.84 L25.82 14.80 L34.85 13.92 L41.04 17.08 L38.18 21.12 Z" fill="url(#topf)"/>
      <path d="M30.43 25.25 L22.61 22.34 L22.96 18.84 L29.15 22.00 Z" fill="url(#near-l)"/>
      <path d="M41.39 19.02 L39.82 23.59 L38.18 21.12 L41.04 17.08 Z" fill="url(#near-r)"/>
      <path d="M39.82 23.59 L30.43 25.25 L29.15 22.00 L38.18 21.12 Z" fill="url(#near-r)"/>
      <path d="M30.43 25.25 L29.15 22.00" fill="none" stroke="#0a5650" stroke-width="0.4" stroke-opacity="0.55"/>
      <path d="M22.61 22.34 L22.96 18.84" fill="none" stroke="#0a5650" stroke-width="0.4" stroke-opacity="0.55"/>
      <path d="M39.82 23.59 L38.18 21.12" fill="none" stroke="#0a5650" stroke-width="0.4" stroke-opacity="0.55"/>
      <path d="M29.15 22.00 L22.96 18.84" fill="none" stroke="#8df6e3" stroke-width="0.5" stroke-opacity="0.92" stroke-linecap="round"/>
      <path d="M41.04 17.08 L38.18 21.12" fill="none" stroke="#8df6e3" stroke-width="0.5" stroke-opacity="0.92" stroke-linecap="round"/>
      <path d="M38.18 21.12 L29.15 22.00" fill="none" stroke="#8df6e3" stroke-width="0.5" stroke-opacity="0.92" stroke-linecap="round"/>
      <path class="flash" d="M29.15 22.00 L22.96 18.84 L25.82 14.80 L34.85 13.92 L41.04 17.08 L38.18 21.12 Z" fill="none" stroke="#d6fff5" stroke-width="1.3" stroke-opacity="0"/>
      </g>
      <g class="ly ly12">
      <path d="M22.96 18.84 L25.82 14.80 L27.32 11.92 L23.41 15.45 Z" fill="url(#far-l)"/>
      <path d="M25.82 14.80 L34.85 13.92 L35.90 11.72 L27.32 11.92 Z" fill="url(#far-l)"/>
      <path d="M34.85 13.92 L41.04 17.08 L40.59 15.03 L35.90 11.72 Z" fill="url(#far-r)"/>
      <path d="M28.10 18.76 L23.41 15.45 L27.32 11.92 L35.90 11.72 L40.59 15.03 L36.68 18.56 Z" fill="url(#topf)"/>
      <path d="M29.15 22.00 L22.96 18.84 L23.41 15.45 L28.10 18.76 Z" fill="url(#near-l)"/>
      <path d="M41.04 17.08 L38.18 21.12 L36.68 18.56 L40.59 15.03 Z" fill="url(#near-r)"/>
      <path d="M38.18 21.12 L29.15 22.00 L28.10 18.76 L36.68 18.56 Z" fill="url(#near-r)"/>
      <path d="M29.15 22.00 L28.10 18.76" fill="none" stroke="#0a5650" stroke-width="0.4" stroke-opacity="0.55"/>
      <path d="M22.96 18.84 L23.41 15.45" fill="none" stroke="#0a5650" stroke-width="0.4" stroke-opacity="0.55"/>
      <path d="M38.18 21.12 L36.68 18.56" fill="none" stroke="#0a5650" stroke-width="0.4" stroke-opacity="0.55"/>
      <path d="M28.10 18.76 L23.41 15.45" fill="none" stroke="#8df6e3" stroke-width="0.5" stroke-opacity="0.92" stroke-linecap="round"/>
      <path d="M40.59 15.03 L36.68 18.56" fill="none" stroke="#8df6e3" stroke-width="0.5" stroke-opacity="0.92" stroke-linecap="round"/>
      <path d="M36.68 18.56 L28.10 18.76" fill="none" stroke="#8df6e3" stroke-width="0.5" stroke-opacity="0.92" stroke-linecap="round"/>
      <path class="flash" d="M28.10 18.76 L23.41 15.45 L27.32 11.92 L35.90 11.72 L40.59 15.03 L36.68 18.56 Z" fill="none" stroke="#d6fff5" stroke-width="1.3" stroke-opacity="0"/>
      </g>
    </svg>