<svg viewBox="0 0 64 64" xmlns="http://www.w3.org/2000/svg" role="img" aria-label="Partwright voxel P Lime">
<style>
.tp{fill:#bef264}.ft{fill:#84cc16}.rt{fill:#4d7c0f}
.ol{fill:none;stroke:#1a2e05;stroke-width:.5;stroke-opacity:.55;stroke-linejoin:round;stroke-linecap:round}
.cr{fill:none;stroke:#f7fee7;stroke-width:.7;stroke-linecap:round;opacity:.7}
.sh{fill:#000;opacity:.32}
polygon,path{stroke-linejoin:round}
</style>
<ellipse class="sh" cx="31" cy="56.5" rx="15.5" ry="2.4"/>
      <polygon class="rt" points="24,47 24,53 28,50.6 28,44.6"/>
      <polygon class="tp" points="18,47 24,47 28,44.6 22,44.6"/>
      <polygon class="ft" points="18,47 24,47 24,53 18,53"/>
      <polygon class="rt" points="24,41 24,47 28,44.6 28,38.6"/>
      <polygon class="tp" points="18,41 24,41 28,38.6 22,38.6"/>
      <polygon class="ft" points="18,41 24,41 24,47 18,47"/>
      <polygon class="rt" points="24,35 24,41 28,38.6 28,32.6"/>
      <polygon class="tp" points="18,35 24,35 28,32.6 22,32.6"/>
      <polygon class="ft" points="18,35 24,35 24,41 18,41"/>
      <polygon class="rt" points="24,29 24,35 28,32.6 28,26.6"/>
      <polygon class="tp" points="18,29 24,29 28,26.6 22,26.6"/>
      <polygon class="ft" points="18,29 24,29 24,35 18,35"/>
      <polygon class="rt" points="30,29 30,35 34,32.6 34,26.6"/>
      <polygon class="tp" points="24,29 30,29 34,26.6 28,26.6"/>
      <polygon class="ft" points="24,29 30,29 30,35 24,35"/>
      <polygon class="rt" points="36,29 36,35 40,32.6 40,26.6"/>
      <polygon class="tp" points="30,29 36,29 40,26.6 34,26.6"/>
      <polygon class="ft" points="30,29 36,29 36,35 30,35"/>
      <polygon class="rt" points="42,29 42,35 46,32.6 46,26.6"/>
      <polygon class="tp" points="36,29 42,29 46,26.6 40,26.6"/>
      <polygon class="ft" points="36,29 42,29 42,35 36,35"/>
      <polygon class="rt" points="24,23 24,29 28,26.6 28,20.6"/>
      <polygon class="tp" points="18,23 24,23 28,20.6 22,20.6"/>
      <polygon class="ft" points="18,23 24,23 24,29 18,29"/>
      <polygon class="rt" points="42,23 42,29 46,26.6 46,20.6"/>
      <polygon class="tp" points="36,23 42,23 46,20.6 40,20.6"/>
      <polygon class="ft" points="36,23 42,23 42,29 36,29"/>
      <polygon class="rt" points="24,17 24,23 28,20.6 28,14.6"/>
      <polygon class="tp" points="18,17 24,17 28,14.6 22,14.6"/>
      <polygon class="ft" points="18,17 24,17 24,23 18,23"/>
      <polygon class="rt" points="42,17 42,23 46,20.6 46,14.6"/>
      <polygon class="tp" points="36,17 42,17 46,14.6 40,14.6"/>
      <polygon class="ft" points="36,17 42,17 42,23 36,23"/>
      <polygon class="rt" points="24,11 24,17 28,14.6 28,8.6"/>
      <polygon class="tp" points="18,11 24,11 28,8.6 22,8.6"/>
      <polygon class="ft" points="18,11 24,11 24,17 18,17"/>
      <polygon class="rt" points="30,11 30,17 34,14.6 34,8.6"/>
      <polygon class="tp" points="24,11 30,11 34,8.6 28,8.6"/>
      <polygon class="ft" points="24,11 30,11 30,17 24,17"/>
      <polygon class="rt" points="36,11 36,17 40,14.6 40,8.6"/>
      <polygon class="tp" points="30,11 36,11 40,8.6 34,8.6"/>
      <polygon class="ft" points="30,11 36,11 36,17 30,17"/>
      <polygon class="rt" points="42,11 42,17 46,14.6 46,8.6"/>
      <polygon class="tp" points="36,11 42,11 46,8.6 40,8.6"/>
      <polygon class="ft" points="36,11 42,11 42,17 36,17"/>
      <polygon class="ol" points="18,11 24,11 24,17 18,17"/>
      <polygon class="ol" points="24,11 30,11 30,17 24,17"/>
      <polygon class="ol" points="30,11 36,11 36,17 30,17"/>
      <polygon class="ol" points="36,11 42,11 42,17 36,17"/>
      <polygon class="ol" points="18,17 24,17 24,23 18,23"/>
      <polygon class="ol" points="36,17 42,17 42,23 36,23"/>
      <polygon class="ol" points="18,23 24,23 24,29 18,29"/>
      <polygon class="ol" points="36,23 42,23 42,29 36,29"/>
      <polygon class="ol" points="18,29 24,29 24,35 18,35"/>
      <polygon class="ol" points="24,29 30,29 30,35 24,35"/>
      <polygon class="ol" points="30,29 36,29 36,35 30,35"/>
      <polygon class="ol" points="36,29 42,29 42,35 36,35"/>
      <polygon class="ol" points="18,35 24,35 24,41 18,41"/>
      <polygon class="ol" points="18,41 24,41 24,47 18,47"/>
      <polygon class="ol" points="18,47 24,47 24,53 18,53"/>
      <path class="cr" d="M18,11 L22,8.6 L28,8.6"/>
      <path class="cr" d="M24,11 L28,8.6 L34,8.6"/>
      <path class="cr" d="M30,11 L34,8.6 L40,8.6"/>
      <path class="cr" d="M36,11 L40,8.6 L46,8.6"/>
      <path class="cr" d="M24,29 L28,26.6 L34,26.6"/>
      <path class="cr" d="M30,29 L34,26.6 L40,26.6"/>
</svg>
